<svg id="Layer_1" data-name="Layer 1" xmlns="http://www.w3.org/2000/svg" viewBox="0 0 400 400"><defs><style>.cls-1{fill:#22225b;}.cls-2{fill:#f7f4f0;}.cls-3{fill:#f74d62;}</style></defs><rect class="cls-1" x="-1.06" y="-1.06" width="402.13" height="402.13"/><polygon class="cls-2" points="123.9 267.66 151.46 267.66 151.46 77.21 85.63 126.41 102.03 148.51 123.9 132.11 123.9 267.66"/><polygon class="cls-2" points="199.38 77.21 199.38 105.85 260.97 105.85 276.92 77.21 199.38 77.21"/><path class="cls-3" d="M204.09,259.53a69.58,69.58,0,0,0,93-102.09,70,70,0,0,0-21.41-16.87l.55-.87,34.21-62.49h-34.8l-.09.17-44.78,84.5c.33,0,6.94.2,14.6.39,23.18.6,42.44,19.85,41.06,43-.07,1.15-.18,2.31-.35,3.48a42.32,42.32,0,0,1-82.5,5.8l-.26-.89-15.63,29.51A69.32,69.32,0,0,0,204.09,259.53Z"/><polygon class="cls-2" points="85.63 306.79 85.63 333.9 132.95 333.9 147.31 306.79 85.63 306.79"/><polygon class="cls-3" points="314.37 294.88 153.49 294.88 139.13 321.99 314.37 321.99 314.37 294.88"/></svg>