<svg id="Layer_1" data-name="Layer 1" xmlns="http://www.w3.org/2000/svg" viewBox="0 0 768 162.01"><defs><style>.cls-1{fill:#f74d62;}.cls-2{fill:#242460;}.cls-3{fill:#54549b;}</style></defs><polygon class="cls-1" points="715.68 19.49 720.59 15.81 720.59 46.23 726.78 46.23 726.78 3.49 712 14.53 715.68 19.49"/><path class="cls-1" d="M758.93,21.11a15.45,15.45,0,0,0-4.71-3.71l.12-.19,7.52-13.72H737.47V9.78h13.41l-6.52,12.3,3.21.09a9.12,9.12,0,0,1,9,9.44c0,.25,0,.51-.07.76a9.3,9.3,0,0,1-18.12,1.28l0-.2-3.44,6.48a15.28,15.28,0,1,0,24-18.82Z"/><rect class="cls-1" x="720.64" y="52.17" width="41.96" height="6.25"/><path class="cls-2" d="M15.24,138.22a.55.55,0,0,1-.62.62H12l.06,13a.56.56,0,0,1-.62.62H8.82a.56.56,0,0,1-.63-.62l.07-13H6a.56.56,0,0,1-.62-.62v-1.8a.56.56,0,0,1,.62-.63H8.29l0-5.71a.56.56,0,0,1,.62-.62h2.33a.56.56,0,0,1,.62.62l0,5.71h2.7a.56.56,0,0,1,.62.63Z"/><path class="cls-2" d="M22.11,138.06a5.33,5.33,0,0,1,4.72-2.58c3.23,0,5.34,2.27,5.37,6.24l.06,10.13a.56.56,0,0,1-.62.62H29a.56.56,0,0,1-.62-.62l.09-9.19c0-2.52-1.08-3.67-2.91-3.67-2.27,0-4,1.74-3.76,5.53l.06,7.33a.56.56,0,0,1-.62.62H18.69a.56.56,0,0,1-.62-.62l.13-22.11a.55.55,0,0,1,.62-.62h2.33a.56.56,0,0,1,.62.62l.06,8.32Z"/><path class="cls-2" d="M51,144.36a.6.6,0,0,1-.65.59H39.19c.16,3.39,2.11,4.78,4.59,4.78A3.49,3.49,0,0,0,47.05,148a.76.76,0,0,1,.74-.44H50c.47,0,.69.28.5.71a7.3,7.3,0,0,1-7,4.72c-4.59,0-7.91-3.44-7.91-8.72s3.29-9,8.19-9C48.88,135.27,51.3,139.3,51,144.36ZM39.38,142.1h7.91a3.57,3.57,0,0,0-3.85-3.6C40.87,138.5,39.81,140.27,39.38,142.1Z"/><path class="cls-2" d="M74,141.23l.13,10.62a.56.56,0,0,1-.62.62H71a.56.56,0,0,1-.62-.62l0-1.9h-.25a6.55,6.55,0,0,1-5.61,2.86c-3,0-5-1.71-5-4.72,0-3.51,2.73-5.09,8.84-5.81,1.37-.15,2.05-.68,2.05-1.64,0-1.31-1.27-2.24-3.22-2.24A3.1,3.1,0,0,0,64,140.27a.73.73,0,0,1-.72.49h-2.2c-.44,0-.69-.22-.59-.56.77-2.92,3.16-4.9,7-4.9S74,137.47,74,141.23Zm-3.72,3.32a13.69,13.69,0,0,1-2.18.5c-3.1.49-5,1.18-5,2.82,0,1.09.77,1.77,2.32,1.77,3.08,0,5.1-2.36,5-4.16l0-.84Z"/><path class="cls-2" d="M92.39,140.42c.09.44-.12.68-.56.68H89.59a.73.73,0,0,1-.71-.46,3.73,3.73,0,0,0-3.6-2.14c-2.52,0-4.25,1.46-4.25,5.74,0,4,1.73,5.46,4.44,5.46a3.34,3.34,0,0,0,3.29-1.83.72.72,0,0,1,.71-.46h2.24c.46,0,.68.28.52.68A7.34,7.34,0,0,1,85.12,153c-4.72,0-7.73-3.41-7.73-8.63,0-5.62,3.23-9.06,7.86-9.06A7.13,7.13,0,0,1,92.39,140.42Z"/><path class="cls-2" d="M108.76,141.23l.12,10.62a.56.56,0,0,1-.62.62h-2.45a.56.56,0,0,1-.62-.62l0-1.9H105a6.58,6.58,0,0,1-5.62,2.86c-3,0-5-1.71-5-4.72,0-3.51,2.73-5.09,8.85-5.81,1.37-.15,2-.68,2-1.64,0-1.31-1.27-2.24-3.23-2.24a3.11,3.11,0,0,0-3.23,1.87.71.71,0,0,1-.71.49H95.84c-.43,0-.68-.22-.59-.56.78-2.92,3.17-4.9,7-4.9S108.76,137.47,108.76,141.23ZM105,144.55a13.54,13.54,0,0,1-2.17.5c-3.11.49-5,1.18-5,2.82,0,1.09.78,1.77,2.33,1.77,3.07,0,5.09-2.36,5-4.16l0-.84Z"/><path class="cls-2" d="M124.79,152.47a.56.56,0,0,1-.63-.62v-1.59H124A5.45,5.45,0,0,1,119,153c-4,0-6.83-3.63-6.83-8.63,0-5.4,3.2-9,7.92-9a5.41,5.41,0,0,1,4,1.58h.16l0-7.14a.56.56,0,0,1,.62-.62h2.33a.56.56,0,0,1,.62.62l.13,22.11a.56.56,0,0,1-.63.62Zm-.32-8.51c.07-3.76-2-5.46-4.47-5.46-2.73,0-4.19,2.08-4.19,5.52,0,3.73,1.77,5.68,4.22,5.68S124.54,147.65,124.47,144Z"/><path class="cls-2" d="M146.78,144.36a.6.6,0,0,1-.66.59H135c.15,3.39,2.11,4.78,4.59,4.78A3.47,3.47,0,0,0,142.8,148a.77.77,0,0,1,.75-.44h2.2c.47,0,.68.28.5.71a7.31,7.31,0,0,1-7,4.72c-4.59,0-7.92-3.44-7.92-8.72s3.29-9,8.2-9C144.63,135.27,147.06,139.3,146.78,144.36Zm-11.65-2.26h7.92a3.57,3.57,0,0,0-3.85-3.6C136.62,138.5,135.57,140.27,135.13,142.1Z"/><path class="cls-2" d="M173.61,141.72l.09,10.13a.56.56,0,0,1-.62.62h-2.61a.56.56,0,0,1-.62-.62l.06-9.19c0-2.67-.9-3.88-2.64-3.88-2.11,0-3.75,1.8-3.54,5.74l.07,7.33a.56.56,0,0,1-.62.62h-2.61a.55.55,0,0,1-.62-.62l.06-9.19c0-2.67-.93-3.88-2.64-3.88-1.9,0-3.76,1.49-3.54,5.74l.06,7.33a.56.56,0,0,1-.62.62h-2.61a.56.56,0,0,1-.62-.62l.16-15.43a.56.56,0,0,1,.62-.63h2.33a.56.56,0,0,1,.62.63l0,1.64H154a5.77,5.77,0,0,1,4.69-2.76,4.43,4.43,0,0,1,4.38,3h.22c1.43-2,3-3,5.09-3C171.59,135.3,173.58,137.6,173.61,141.72Z"/><path class="cls-2" d="M191.63,135.79c.46,0,.65.28.49.72l-7.63,22.29a.69.69,0,0,1-.72.5h-2.64c-.43,0-.65-.28-.49-.72l1.89-5.18-6-16.89c-.16-.44.06-.72.49-.72h2.27a.64.64,0,0,1,.68.5l4.07,12.08h.25l4.35-12.08a.67.67,0,0,1,.71-.5Z"/><path class="cls-2" d="M216.5,143.93c0,5.22-3.57,9-8.25,9s-8-3.63-8-8.75,3.55-8.91,8.26-8.91S216.5,138.78,216.5,143.93Zm-12.6-.06c0,3.57,2.11,5.83,4.72,5.83,2.45,0,4.22-2.08,4.22-5.37,0-3.63-2.08-5.83-4.72-5.83C205.67,138.5,203.9,140.51,203.9,143.87Z"/><path class="cls-2" d="M229.43,131.73a.56.56,0,0,1-.63.62c-2.7.06-4.09.18-4.06,3.29v.15h3.91a.56.56,0,0,1,.62.63v1.8a.56.56,0,0,1-.62.62h-3.88l.09,13a.56.56,0,0,1-.62.62h-2.58a.56.56,0,0,1-.62-.62l.09-13h-2a.55.55,0,0,1-.62-.62v-1.8a.56.56,0,0,1,.62-.63h2c.09-5.59,3.66-6.89,7.67-6.7a.56.56,0,0,1,.59.62Z"/><path class="cls-2" d="M252.44,140.42c.09.44-.12.68-.56.68h-2.24a.73.73,0,0,1-.71-.46,3.74,3.74,0,0,0-3.6-2.14c-2.52,0-4.25,1.46-4.25,5.74,0,4,1.73,5.46,4.44,5.46a3.34,3.34,0,0,0,3.29-1.83.72.72,0,0,1,.71-.46h2.24c.46,0,.68.28.52.68a7.34,7.34,0,0,1-7.11,4.87c-4.72,0-7.73-3.41-7.73-8.63,0-5.62,3.23-9.06,7.86-9.06A7.13,7.13,0,0,1,252.44,140.42Z"/><path class="cls-2" d="M259.31,138.06a5.32,5.32,0,0,1,4.72-2.58c3.22,0,5.34,2.27,5.37,6.24l.06,10.13a.56.56,0,0,1-.62.62h-2.61a.56.56,0,0,1-.62-.62l.09-9.19c0-2.52-1.08-3.67-2.92-3.67-2.26,0-4,1.74-3.75,5.53l.06,7.33a.56.56,0,0,1-.62.62h-2.58a.56.56,0,0,1-.62-.62l.13-22.11a.55.55,0,0,1,.61-.62h2.33a.55.55,0,0,1,.62.62l.07,8.32Z"/><path class="cls-2" d="M287.22,141.23l.13,10.62a.56.56,0,0,1-.62.62h-2.46a.56.56,0,0,1-.62-.62l0-1.9h-.25a6.58,6.58,0,0,1-5.62,2.86c-3,0-5-1.71-5-4.72,0-3.51,2.73-5.09,8.85-5.81,1.36-.15,2.05-.68,2.05-1.64,0-1.31-1.28-2.24-3.23-2.24a3.1,3.1,0,0,0-3.23,1.87.73.73,0,0,1-.72.49h-2.2c-.44,0-.68-.22-.59-.56.78-2.92,3.17-4.9,7-4.9S287.22,137.47,287.22,141.23Zm-3.72,3.32a13.8,13.8,0,0,1-2.17.5c-3.11.49-5,1.18-5,2.82,0,1.09.77,1.77,2.33,1.77,3.07,0,5.09-2.36,5-4.16l0-.84Z"/><path class="cls-2" d="M305.92,141.72v10.13a.55.55,0,0,1-.62.62h-2.61a.56.56,0,0,1-.62-.62v-9.19c0-2.58-1.15-3.88-3-3.88-2.26,0-4,1.83-3.75,5.74l.06,7.33a.56.56,0,0,1-.62.62H292.2a.56.56,0,0,1-.62-.62l.12-15.43a.56.56,0,0,1,.62-.63h2.33a.56.56,0,0,1,.62.63l0,1.64h.25a5.43,5.43,0,0,1,4.85-2.76C303.66,135.3,305.92,137.66,305.92,141.72Z"/><path class="cls-2" d="M325.09,150c.12,6.77-3.33,9.84-7.92,9.84a7.15,7.15,0,0,1-6.83-4.09c-.22-.44,0-.75.47-.75h2.35a1,1,0,0,1,.75.37,3.91,3.91,0,0,0,3.2,1.25c2.39,0,4.16-1.25,4.06-5.38v-.4H321a4.67,4.67,0,0,1-3.95,1.68c-4.65,0-7.85-3.42-7.85-8.6,0-4.85,2.79-8.57,6.83-8.57a5.68,5.68,0,0,1,5,2.79h.25l0-1.67a.6.6,0,0,1,.65-.63h2.33a.56.56,0,0,1,.62.63Zm-3.61-5.59c.07-3.69-1.92-5.86-4.44-5.86s-4.22,2.11-4.22,5.68c0,3.26,1.46,5.06,4.19,5.06C319.5,149.24,321.55,147.72,321.48,144.36Z"/><path class="cls-2" d="M343.85,144.36a.6.6,0,0,1-.66.59H332c.15,3.39,2.11,4.78,4.59,4.78a3.47,3.47,0,0,0,3.26-1.76.77.77,0,0,1,.75-.44h2.2c.47,0,.68.28.5.71a7.31,7.31,0,0,1-7,4.72c-4.59,0-7.92-3.44-7.92-8.72s3.29-9,8.2-9C341.7,135.27,344.13,139.3,343.85,144.36ZM332.2,142.1h7.92a3.57,3.57,0,0,0-3.85-3.6C333.69,138.5,332.64,140.27,332.2,142.1Z"/><path class="cls-2" d="M154.31,102.31H88.39V3.48h17.09V88h48.83Z"/><path class="cls-2" d="M180,102.31H161.8L199.3,3.48h17.3L254,102.31H235.74l-9.55-26.8H189.66Zm15.79-43.89H220.1L208,24.51Z"/><path class="cls-2" d="M273,20.57H240.73V3.48h81.91V20.57H290.08V102.9H273Z"/><path class="cls-2" d="M613.62,102.3h-17.1V3.49h25.13l24.7,71.59.36,1.06.37-1.06,24.7-71.59h25.13V102.3h-17.1V32.71l-24,69.59H637.64l-24-69.59Z"/><path class="cls-2" d="M437.85,83.51c-14-8.8-17.56-28.5-7.87-43.93L416,30.84c-14.5,23.11-8.64,53,13.06,66.6s51.16,5.89,65.66-17.22l-13.93-8.74C471.14,86.91,451.86,92.3,437.85,83.51Z"/><path class="cls-1" d="M474.24,8.94C452.54-4.68,423.09,3,408.59,26.15h0l13.93,8.75h0c9.68-15.42,29-20.82,43-12s17.55,28.5,7.87,43.93h0l13.93,8.74h0C501.8,52.43,495.94,22.55,474.24,8.94Z"/><polygon class="cls-2" points="328.69 3.48 328.69 102.31 345.78 102.31 345.78 61.44 389.5 61.44 389.5 44.35 345.78 44.35 345.78 17.8 394.61 17.8 394.61 17.39 372.41 3.48 328.69 3.48"/><path class="cls-2" d="M46.29,64.35H22.83v38.34H5.4V3.48H46.29c21.19,0,34.32,10.86,34.32,30.43S67.48,64.35,46.29,64.35Zm-2.54-47.2H22.83V50.67H43.75c12.06,0,18.63-5.23,18.63-16.76S55.81,17.15,43.75,17.15Z"/><path class="cls-3" d="M529.55,64.34V102l0,0V64.34Z"/><path class="cls-2" d="M587.44,29.41a15.23,15.23,0,0,0-.32-2.41c-.2-1-.4-2-.68-2.94a23.57,23.57,0,0,0-1-2.9,8.56,8.56,0,0,0-.77-1.62,18.6,18.6,0,0,0-2-3.54,11.4,11.4,0,0,0-1.41-1.77,21.57,21.57,0,0,0-4.8-4.47,16.49,16.49,0,0,0-2.09-1.33.74.74,0,0,0-.28-.21,16.37,16.37,0,0,0-2.06-1,9.62,9.62,0,0,0-2.13-.93A15.76,15.76,0,0,0,568,5.61a24.15,24.15,0,0,0-2.66-.77c-.93-.24-1.9-.44-2.86-.6a2.43,2.43,0,0,0-.77-.12c-1-.17-1.93-.29-2.9-.37a1,1,0,0,0-.48,0c-1.17-.12-2.38-.16-3.63-.2-.44,0-.84,0-1.29,0H512.51V91.29l17,10.68V64.34h13.18l0,.16,22.72,37.79h19.94l-.08-.12L562.26,63.74s-.08-.08-.08-.12h0c.89-.17,1.78-.33,2.66-.53a44.27,44.27,0,0,0,5-1.53,20.34,20.34,0,0,0,2.25-1,21.43,21.43,0,0,0,2.14-1.08,23.42,23.42,0,0,0,3.3-2.26A9.87,9.87,0,0,0,579,56a11.22,11.22,0,0,0,1.29-1.29,3.57,3.57,0,0,0,.49-.52,12,12,0,0,0,1.12-1.37,6.84,6.84,0,0,0,.73-1,20.91,20.91,0,0,0,2.42-4.35c.24-.52.48-1.09.68-1.65a1.43,1.43,0,0,0,.16-.44c.24-.69.44-1.41.65-2.14a27.84,27.84,0,0,0,.92-5.07s0,0,0-.08a4.18,4.18,0,0,0,.08-1,28.58,28.58,0,0,0,.16-3.22A33,33,0,0,0,587.44,29.41ZM568.39,41.1a0,0,0,0,0,0,0c-2.34,6.52-8.34,9.54-17.49,9.54H529.92V17.17h20.94c5.28,0,9.51,1,12.57,3.14a0,0,0,0,1,0,0c3.95,2.7,6,7.17,6,13.58A21.62,21.62,0,0,1,568.39,41.1Z"/></svg>